<?xml version="1.0" encoding="UTF-8"?>
<svg id="Layer_1" data-name="Layer 1" xmlns="http://www.w3.org/2000/svg" viewBox="0 0 792 288">
  <defs>
    <style>
      .cls-1 {
        fill: #8fcfb0;
      }
    </style>
  </defs>
  <path class="cls-1" d="M72,149.27v64.54c0,1.4.56,2.74,1.54,3.73l68.91,68.91c.99.99,2.33,1.54,3.73,1.54h67.63c1.4,0,2.74-.56,3.73-1.54l68.91-68.91c.99-.99,1.54-2.33,1.54-3.73v-67.63c0-1.4-.56-2.74-1.54-3.73l-68.91-68.91c-.99-.99-2.33-1.54-3.73-1.54h-28.54c-2.91,0-5.27-2.36-5.27-5.27v-25.46c0-2.91,2.36-5.27,5.27-5.27h172.68c1.32,0,2.59.49,3.56,1.39l104.98,96.23c.97.89,2.24,1.39,3.56,1.39h20.62c4.78,0,7.09-5.85,3.61-9.12L361.52,1.43c-.98-.92-2.27-1.43-3.61-1.43h-211.73c-1.4,0-2.74.56-3.73,1.54l-68.91,68.91c-.99.99-1.54,2.33-1.54,3.73v10.54c0,2.91-2.36,5.27-5.27,5.27H5.27c-2.91,0-5.27,2.36-5.27,5.27v7.46c0,2.91,2.36,5.27,5.27,5.27h169.46c2.91,0,5.27,2.36,5.27,5.27v25.46c0,2.91-2.36,5.27-5.27,5.27h-97.46c-2.91,0-5.27,2.36-5.27,5.27Z"/>
  <path fill="#fff" d="M171,122.27v7.46c0,2.91-2.36,5.27-5.27,5.27h-97.46c-2.91,0-5.27,2.36-5.27,5.27v52.46c0,2.91-2.36,5.27-5.27,5.27H5.27c-2.91,0-5.27-2.36-5.27-5.27v-70.46c0-2.91,2.36-5.27,5.27-5.27h160.46c2.91,0,5.27,2.36,5.27,5.27Z"/>
  <path fill="#fff" d="M0,212.27v1.54c0,1.4.56,2.74,1.54,3.73l23.91,23.91c.99.99,2.33,1.54,3.73,1.54h48.09c4.7,0,7.05-5.68,3.73-9l-16.46-16.46c-.99-.99-1.54-2.33-1.54-3.73v-1.54c0-2.91-2.36-5.27-5.27-5.27H5.27c-2.91,0-5.27,2.36-5.27,5.27Z"/>
  <path fill="#fff" d="M5.27,81h52.46c2.91,0,5.27-2.36,5.27-5.27v-10.54c0-1.4.56-2.74,1.54-3.73l32.91-32.91c.99-.99,1.54-2.33,1.54-3.73V5.27c0-2.91-2.36-5.27-5.27-5.27H5.27C2.36,0,0,2.36,0,5.27v70.46c0,2.91,2.36,5.27,5.27,5.27Z"/>
  <path fill="#fff" d="M117,9h0c3.32-3.32.97-9-3.73-9h0c-2.91,0-5.27,2.36-5.27,5.27h0c0,4.7,5.68,7.05,9,3.73Z"/>
  <circle fill="#fff" cx="90" cy="207" r="9"/>
  <circle fill="#fff" cx="144" cy="261" r="9"/>
  <circle fill="#fff" cx="117" cy="234" r="9"/>
  <g>
    <path fill="#fff" d="M340.06,147.53l31.4,61.01c.36.78.5,1.57.5,2.26,0,2.94-2.81,5.2-5.26,5.2-1.3,0-2.45-.59-3.17-1.96l-8.5-16.87h-40.04l-7.99,16.87c-.65,1.37-1.87,1.96-3.1,1.96-2.38,0-5.18-2.26-5.18-5.3,0-.78.22-1.47.5-2.16l29.52-61.01c1.08-2.16,2.81-3.43,5.69-3.43s4.46,1.28,5.62,3.43ZM319.97,186.57h29.74l-15.27-30.51-14.47,30.51Z"/>
    <path fill="#fff" d="M382.53,185.79v11.48c0,4.22,3.67,7.65,12.1,7.65h34.42c2.3,0,2.81,1.77,2.81,5.3s-.5,5.3-2.81,5.3h-34.71c-14.18,0-21.31-6.08-21.31-18.25v-34.63c0-12.26,7.13-18.25,21.31-18.25h10.73c2.23,0,2.74,1.77,2.74,5.3s-.5,5.3-2.74,5.3h-10.44c-8.42,0-12.1,3.34-12.1,7.65v12.56h46.73c2.3,0,2.81,1.77,2.81,5.3s-.5,5.3-2.81,5.3h-46.73Z"/>
    <path fill="#fff" d="M441.28,144.39h40.47c13.03,0,21.17,6.28,21.17,15.89v12.36c0,9.61-8.14,15.89-21.17,15.89h-2.88c-8.5,0-11.95-.1-15.7-.39v.2c3.1,1.57,6.41,3.04,17.35,9.02l17.35,9.52c1.66.88,2.3,2.26,2.3,4.41,0,3.53-1.73,4.61-4.9,4.61-1.37,0-4.18-.2-5.69-1.37l-42.12-24.82v21.58c0,3.73-1.66,4.61-4.82,4.61s-4.75-.88-4.75-4.61v-62.39c0-3.04,1.08-4.51,3.38-4.51ZM447.48,154.99v23.15h33.41c9.79,0,12.53-2.75,12.53-6.28v-10.59c0-3.53-2.74-6.28-12.53-6.28h-33.41Z"/>
    <path fill="#fff" d="M529.48,215.51c-14.18,0-21.31-6.08-21.31-18.25v-34.63c0-12.26,7.13-18.25,21.31-18.25h20.95c14.19,0,21.31,5.98,21.31,18.25v34.63c0,12.16-7.13,18.25-21.31,18.25h-20.95ZM562.25,197.26v-34.63c0-4.32-3.67-7.65-12.1-7.65h-20.38c-8.42,0-12.1,3.34-12.1,7.65v34.63c0,4.22,3.67,7.65,12.1,7.65h20.38c8.42,0,12.1-3.43,12.1-7.65Z"/>
    <path fill="#fff" d="M605.09,211.68c-.94,2.84-2.81,4.22-5.54,4.22s-4.9-1.37-5.91-4.51l-20.02-60.52c-.29-.78-.43-1.57-.43-2.26,0-2.84,2.23-4.61,5.26-4.61,2.23,0,3.46.98,4.1,2.94l16.85,53.85,17.5-51.89c1.3-3.83,2.59-4.91,5.47-4.91,3.02,0,3.96,1.18,5.18,4.91l17.43,51.89,17.28-53.85c.65-1.96,1.87-2.94,4.1-2.94,3.02,0,5.26,1.77,5.26,4.61,0,.69-.14,1.47-.43,2.26l-20.45,60.52c-1.01,3.04-3.1,4.51-5.9,4.51-2.59,0-4.68-1.28-5.69-4.22l-16.99-50.42-17.07,50.42Z"/>
    <path fill="#fff" d="M702.43,147.53l31.4,61.01c.36.78.5,1.57.5,2.26,0,2.94-2.81,5.2-5.26,5.2-1.3,0-2.45-.59-3.17-1.96l-8.5-16.87h-40.04l-7.99,16.87c-.65,1.37-1.87,1.96-3.1,1.96-2.38,0-5.18-2.26-5.18-5.3,0-.78.22-1.47.5-2.16l29.52-61.01c1.08-2.16,2.81-3.43,5.69-3.43s4.46,1.28,5.62,3.43ZM682.34,186.57h29.74l-15.27-30.51-14.47,30.51Z"/>
    <path fill="#fff" d="M719.92,151.85c-.94-1.18-1.51-2.65-1.51-3.92,0-2.06,1.51-3.92,5.18-3.92,2.09,0,3.02.59,4.03,1.86l23.11,30.6,23.04-30.6c.94-1.28,1.94-1.86,4.03-1.86,3.6,0,5.18,1.77,5.18,3.92,0,1.28-.58,2.75-1.51,3.92l-25.99,34.23v25.21c0,3.73-1.66,4.61-4.82,4.61s-4.75-.88-4.75-4.61v-25.21l-25.99-34.23Z"/>
  </g>
  <g>
    <path fill="#fff" d="M446.3,254.45h23.18v-9.75c0-1.37.83-1.69,2.41-1.69s2.38.32,2.38,1.69v23c0,1.37-.83,1.69-2.38,1.69s-2.41-.32-2.41-1.69v-9.36h-23.18v9.36c0,1.37-.83,1.69-2.41,1.69s-2.38-.32-2.38-1.69v-23c0-1.37.83-1.69,2.38-1.69s2.41.32,2.41,1.69v9.75Z"/>
    <path fill="#fff" d="M477.11,245.88c-.47-.43-.76-.97-.76-1.44,0-.76.76-1.44,2.59-1.44,1.04,0,1.51.22,2.02.68l11.55,11.23,11.52-11.23c.47-.47.97-.68,2.02-.68,1.8,0,2.59.65,2.59,1.44,0,.47-.29,1.01-.76,1.44l-12.99,12.56v9.25c0,1.37-.83,1.69-2.41,1.69s-2.38-.32-2.38-1.69v-9.25l-12.99-12.56Z"/>
    <path fill="#fff" d="M543.46,262.54c0,4.46-3.53,6.7-10.65,6.7h-20.41c-1.12,0-1.66-.58-1.66-1.69v-22.75c0-1.12.54-1.66,1.66-1.66h20.41c7.13,0,10.65,2.2,10.65,6.7v12.71ZM515.52,265.35h17.13c4.21,0,6.08-1.26,6.08-2.81v-12.71c0-1.58-1.87-2.81-6.08-2.81h-17.13v18.32Z"/>
    <path fill="#fff" d="M548.21,243.14h20.23c6.52,0,10.58,2.3,10.58,5.83v4.54c0,3.53-4.07,5.83-10.58,5.83h-1.44c-4.25,0-5.98-.04-7.85-.14v.07c1.55.58,3.2,1.12,8.67,3.31l8.68,3.49c.83.32,1.15.83,1.15,1.62,0,1.3-.86,1.69-2.45,1.69-.68,0-2.09-.07-2.84-.5l-21.06-9.11v7.92c0,1.37-.83,1.69-2.41,1.69s-2.38-.32-2.38-1.69v-22.89c0-1.12.54-1.66,1.69-1.66ZM551.31,247.03v8.5h16.7c4.9,0,6.26-1.01,6.26-2.3v-3.89c0-1.3-1.37-2.3-6.26-2.3h-16.7Z"/>
    <path fill="#fff" d="M592.31,269.24c-7.09,0-10.65-2.23-10.65-6.7v-12.71c0-4.5,3.56-6.7,10.65-6.7h10.47c7.09,0,10.65,2.2,10.65,6.7v12.71c0,4.46-3.56,6.7-10.65,6.7h-10.47ZM608.69,262.54v-12.71c0-1.58-1.84-2.81-6.05-2.81h-10.19c-4.21,0-6.05,1.22-6.05,2.81v12.71c0,1.55,1.84,2.81,6.05,2.81h10.19c4.21,0,6.05-1.26,6.05-2.81Z"/>
    <path fill="#fff" d="M618.2,243.14h20.41c6.52,0,10.58,2.3,10.58,5.83v5.22c0,3.53-4.07,5.83-10.58,5.83h-17.31v7.67c0,1.37-.83,1.69-2.41,1.69s-2.38-.32-2.38-1.69v-22.89c0-1.12.54-1.66,1.69-1.66ZM621.29,247.03v9.11h16.88c4.9,0,6.26-1.01,6.26-2.3v-4.5c0-1.3-1.37-2.3-6.26-2.3h-16.88Z"/>
    <path fill="#fff" d="M662.26,269.24c-7.09,0-10.65-2.23-10.65-6.7v-12.71c0-4.5,3.56-6.7,10.65-6.7h10.47c7.09,0,10.65,2.2,10.65,6.7v12.71c0,4.46-3.56,6.7-10.65,6.7h-10.47ZM678.64,262.54v-12.71c0-1.58-1.84-2.81-6.05-2.81h-10.19c-4.21,0-6.05,1.22-6.05,2.81v12.71c0,1.55,1.84,2.81,6.05,2.81h10.19c4.21,0,6.05-1.26,6.05-2.81Z"/>
    <path fill="#fff" d="M713.63,268.16l-22.39-18.86v18.39c0,1.37-.83,1.69-2.41,1.69s-2.38-.32-2.38-1.69v-23c0-1.33.79-1.69,2.27-1.69,1.58,0,2.27.4,3.38,1.33l22.07,18.79v-18.43c0-1.37.83-1.69,2.38-1.69s2.41.32,2.41,1.69v23c0,1.4-.83,1.69-2.48,1.69-1.3,0-1.58-.18-2.84-1.22Z"/>
    <path fill="#fff" d="M727.13,267.69c0,1.37-.83,1.69-2.41,1.69s-2.38-.32-2.38-1.69v-23c0-1.37.83-1.69,2.38-1.69s2.41.32,2.41,1.69v23Z"/>
    <path fill="#fff" d="M740.85,269.24c-7.09,0-10.65-2.23-10.65-6.7v-12.71c0-4.5,3.56-6.7,10.65-6.7h17.64c1.15,0,1.4.65,1.4,1.94s-.25,1.94-1.4,1.94h-17.49c-4.21,0-6.05,1.22-6.05,2.81v12.71c0,1.55,1.84,2.81,6.05,2.81h17.53c1.15,0,1.37.65,1.37,1.94s-.22,1.94-1.37,1.94h-17.67Z"/>
    <path fill="#fff" d="M772.96,257.94c-7.09,0-10.66-2.23-10.66-6.7v-1.4c0-4.5,3.56-6.7,10.66-6.7h3.6c1.15,0,1.4.65,1.4,1.94s-.25,1.94-1.4,1.94h-3.71c-4.21,0-5.79,1.22-5.79,2.81v1.4c0,1.55,1.58,2.81,5.79,2.81h8.5c7.09,0,10.65,2.23,10.65,6.7v1.8c0,4.5-3.56,6.7-10.65,6.7h-17.64c-1.15,0-1.4-.65-1.4-1.94s.25-1.94,1.4-1.94h17.75c4.21,0,5.8-1.22,5.8-2.81v-1.8c0-1.55-1.58-2.81-5.8-2.81h-8.49Z"/>
  </g>
  <path fill="#fff" d="M295.68,225.71h0c.84-.45,1.99-.71,3.18-.71h488.64c2.49,0,4.5,1.09,4.5,2.43h0c0,1.34-2.01,2.43-4.5,2.43h-488.64c-4.01,0-6.02-2.61-3.18-4.14Z"/>
</svg>