<?xml version="1.0" encoding="UTF-8"?>
<svg id="Layer_1" data-name="Layer 1" xmlns="http://www.w3.org/2000/svg" viewBox="0 0 495.95 288">
  <defs>
    <style>
      .cls-1 {
        fill: #8fcfb0;
      }
    </style>
  </defs>
  <path class="cls-1" d="M72,149.27v64.54c0,1.4.56,2.74,1.54,3.73l68.91,68.91c.99.99,2.33,1.54,3.73,1.54h67.63c1.4,0,2.74-.56,3.73-1.54l68.91-68.91c.99-.99,1.54-2.33,1.54-3.73v-67.63c0-1.4-.56-2.74-1.54-3.73l-68.91-68.91c-.99-.99-2.33-1.54-3.73-1.54h-28.54c-2.91,0-5.27-2.36-5.27-5.27v-25.46c0-2.91,2.36-5.27,5.27-5.27h172.68c1.32,0,2.59.49,3.56,1.39l104.98,96.23c.97.89,2.24,1.39,3.56,1.39h20.62c4.78,0,7.09-5.85,3.61-9.12L361.52,1.43c-.98-.92-2.27-1.43-3.61-1.43h-211.73c-1.4,0-2.74.56-3.73,1.54l-68.91,68.91c-.99.99-1.54,2.33-1.54,3.73v10.54c0,2.91-2.36,5.27-5.27,5.27H5.27c-2.91,0-5.27,2.36-5.27,5.27v7.46c0,2.91,2.36,5.27,5.27,5.27h169.46c2.91,0,5.27,2.36,5.27,5.27v25.46c0,2.91-2.36,5.27-5.27,5.27h-97.46c-2.91,0-5.27,2.36-5.27,5.27Z"/>
  <path fill="#fff" d="M171,122.27v7.46c0,2.91-2.36,5.27-5.27,5.27h-97.46c-2.91,0-5.27,2.36-5.27,5.27v52.46c0,2.91-2.36,5.27-5.27,5.27H5.27c-2.91,0-5.27-2.36-5.27-5.27v-70.46c0-2.91,2.36-5.27,5.27-5.27h160.46c2.91,0,5.27,2.36,5.27,5.27Z"/>
  <path fill="#fff" d="M0,212.27v1.54c0,1.4.56,2.74,1.54,3.73l23.91,23.91c.99.99,2.33,1.54,3.73,1.54h48.09c4.7,0,7.05-5.68,3.73-9l-16.46-16.46c-.99-.99-1.54-2.33-1.54-3.73v-1.54c0-2.91-2.36-5.27-5.27-5.27H5.27c-2.91,0-5.27,2.36-5.27,5.27Z"/>
  <path fill="#fff" d="M5.27,81h52.46c2.91,0,5.27-2.36,5.27-5.27v-10.54c0-1.4.56-2.74,1.54-3.73l32.91-32.91c.99-.99,1.54-2.33,1.54-3.73V5.27c0-2.91-2.36-5.27-5.27-5.27H5.27C2.36,0,0,2.36,0,5.27v70.46c0,2.91,2.36,5.27,5.27,5.27Z"/>
  <path fill="#fff" d="M117,9h0c3.32-3.32.97-9-3.73-9h0c-2.91,0-5.27,2.36-5.27,5.27h0c0,4.7,5.68,7.05,9,3.73Z"/>
  <circle fill="#fff" cx="90" cy="207" r="9"/>
  <circle fill="#fff" cx="144" cy="261" r="9"/>
  <circle fill="#fff" cx="117" cy="234" r="9"/>
</svg>