<?xml version="1.0" encoding="UTF-8"?>
<svg id="Layer_1" data-name="Layer 1" xmlns="http://www.w3.org/2000/svg" viewBox="0 0 113.96 13.16">
  <path d="M10.7,9.75c0,2.28-1.24,3.34-3.55,3.34h-3.62c-2.35,0-3.54-1.11-3.54-3.34V3.41C0,1.17,1.18.07,3.54.07h1.68c.38,0,.47.32.47.97s-.08.97-.47.97h-1.64c-1.4,0-2.01.61-2.01,1.4v6.34c0,.77.61,1.4,2.01,1.4h3.52c1.4,0,1.99-.63,1.99-1.4v-3.2c0-.7.26-.84.79-.84s.81.14.81.84v3.2Z"/>
  <path d="M12.26.07h6.71c2.16,0,3.51,1.15,3.51,2.91v2.26c0,1.76-1.35,2.91-3.51,2.91h-.48c-1.41,0-1.98-.02-2.6-.07v.04c.51.29,1.06.56,2.88,1.65l2.88,1.74c.27.16.38.41.38.81,0,.65-.29.84-.81.84-.23,0-.69-.04-.94-.25l-6.99-4.54v3.95c0,.68-.27.84-.8.84s-.79-.16-.79-.84V.9c0-.56.18-.83.56-.83ZM13.29,2.01v4.24h5.54c1.62,0,2.08-.5,2.08-1.15v-1.94c0-.65-.45-1.15-2.08-1.15h-5.54Z"/>
  <path d="M26.9,13.09c-2.35,0-3.54-1.11-3.54-3.34V3.41c0-2.24,1.18-3.34,3.54-3.34h3.48c2.35,0,3.54,1.1,3.54,3.34v6.34c0,2.23-1.18,3.34-3.54,3.34h-3.48ZM32.34,9.75V3.41c0-.79-.61-1.4-2.01-1.4h-3.38c-1.4,0-2.01.61-2.01,1.4v6.34c0,.77.61,1.4,2.01,1.4h3.38c1.4,0,2.01-.63,2.01-1.4Z"/>
  <path d="M39.45,12.39c-.16.52-.47.77-.92.77s-.81-.25-.98-.83l-3.32-11.08c-.05-.14-.07-.29-.07-.41,0-.52.37-.84.87-.84.37,0,.57.18.68.54l2.8,9.86,2.9-9.5c.21-.7.43-.9.91-.9.5,0,.66.22.86.9l2.89,9.5,2.87-9.86c.11-.36.31-.54.68-.54.5,0,.87.32.87.84,0,.13-.02.27-.07.41l-3.39,11.08c-.17.56-.51.83-.98.83-.43,0-.78-.23-.94-.77l-2.82-9.23-2.83,9.23Z"/>
  <path d="M60.6,2.01v10.31c0,.68-.27.84-.8.84s-.79-.16-.79-.84V2.01h-3.6c-.38,0-.47-.32-.47-.97s.08-.97.47-.97h8.79c.38,0,.47.32.47.97s-.08.97-.47.97h-3.61Z"/>
  <path d="M68.58,13.09c-2.35,0-3.54-1.11-3.54-3.34V3.41c0-2.24,1.18-3.34,3.54-3.34h3.48c2.35,0,3.54,1.1,3.54,3.34v6.34c0,2.23-1.18,3.34-3.54,3.34h-3.48ZM74.01,9.75V3.41c0-.79-.61-1.4-2.01-1.4h-3.38c-1.4,0-2.01.61-2.01,1.4v6.34c0,.77.61,1.4,2.01,1.4h3.38c1.4,0,2.01-.63,2.01-1.4Z"/>
  <path d="M81.12,12.39c-.16.52-.47.77-.92.77s-.81-.25-.98-.83l-3.32-11.08c-.05-.14-.07-.29-.07-.41,0-.52.37-.84.87-.84.37,0,.57.18.68.54l2.8,9.86,2.9-9.5c.21-.7.43-.9.91-.9.5,0,.66.22.86.9l2.89,9.5,2.87-9.86c.11-.36.31-.54.68-.54.5,0,.87.32.87.84,0,.13-.02.27-.07.41l-3.39,11.08c-.17.56-.51.83-.98.83-.43,0-.78-.23-.94-.77l-2.82-9.23-2.83,9.23Z"/>
  <path d="M93.99,7.65v2.1c0,.77.61,1.4,2.01,1.4h5.71c.38,0,.46.32.46.97s-.08.97-.46.97h-5.76c-2.35,0-3.54-1.11-3.54-3.34V3.41c0-2.24,1.18-3.34,3.54-3.34h1.78c.37,0,.45.32.45.97s-.08.97-.45.97h-1.73c-1.4,0-2.01.61-2.01,1.4v2.3h7.75c.38,0,.47.32.47.97s-.08.97-.47.97h-7.75Z"/>
  <path d="M103.74.07h6.71c2.16,0,3.51,1.15,3.51,2.91v2.26c0,1.76-1.35,2.91-3.51,2.91h-.48c-1.41,0-1.98-.02-2.6-.07v.04c.51.29,1.06.56,2.88,1.65l2.88,1.74c.27.16.38.41.38.81,0,.65-.29.84-.81.84-.23,0-.69-.04-.94-.25l-6.99-4.54v3.95c0,.68-.28.84-.8.84s-.79-.16-.79-.84V.9c0-.56.18-.83.56-.83ZM104.77,2.01v4.24h5.54c1.62,0,2.08-.5,2.08-1.15v-1.94c0-.65-.45-1.15-2.08-1.15h-5.54Z"/>
</svg>